<svg width="70" height="70" viewBox="0 0 70 70" fill="none" xmlns="http://www.w3.org/2000/svg">
<circle cx="35" cy="35" r="35" fill="white"/>
<path d="M21.616 53.9H17.066L16.198 56H13.874L18.242 46.2H20.482L24.864 56H22.484L21.616 53.9ZM20.902 52.178L19.348 48.426L17.794 52.178H20.902ZM33.178 48.468V56H31.106V55.104C30.8167 55.4307 30.4714 55.6827 30.07 55.86C29.6687 56.028 29.2347 56.112 28.768 56.112C27.7787 56.112 26.9947 55.8273 26.416 55.258C25.8374 54.6887 25.548 53.844 25.548 52.724V48.468H27.732V52.402C27.732 53.6153 28.2407 54.222 29.258 54.222C29.7807 54.222 30.2007 54.054 30.518 53.718C30.8354 53.3727 30.994 52.864 30.994 52.192V48.468H33.178ZM40.0594 55.636C39.8447 55.7947 39.5787 55.916 39.2614 56C38.9534 56.0747 38.6267 56.112 38.2814 56.112C37.3854 56.112 36.69 55.8833 36.1954 55.426C35.71 54.9687 35.4674 54.2967 35.4674 53.41V50.316H34.3054V48.636H35.4674V46.802H37.6514V48.636H39.5274V50.316H37.6514V53.382C37.6514 53.6993 37.7307 53.9467 37.8894 54.124C38.0574 54.292 38.2907 54.376 38.5894 54.376C38.9347 54.376 39.2287 54.2827 39.4714 54.096L40.0594 55.636ZM44.6369 56.112C43.8436 56.112 43.1296 55.9487 42.4949 55.622C41.8696 55.286 41.3796 54.824 41.0249 54.236C40.6703 53.648 40.4929 52.9807 40.4929 52.234C40.4929 51.4873 40.6703 50.82 41.0249 50.232C41.3796 49.644 41.8696 49.1867 42.4949 48.86C43.1296 48.524 43.8436 48.356 44.6369 48.356C45.4303 48.356 46.1396 48.524 46.7649 48.86C47.3903 49.1867 47.8803 49.644 48.2349 50.232C48.5896 50.82 48.7669 51.4873 48.7669 52.234C48.7669 52.9807 48.5896 53.648 48.2349 54.236C47.8803 54.824 47.3903 55.286 46.7649 55.622C46.1396 55.9487 45.4303 56.112 44.6369 56.112ZM44.6369 54.32C45.1969 54.32 45.6543 54.1333 46.0089 53.76C46.3729 53.3773 46.5549 52.8687 46.5549 52.234C46.5549 51.5993 46.3729 51.0953 46.0089 50.722C45.6543 50.3393 45.1969 50.148 44.6369 50.148C44.0769 50.148 43.6149 50.3393 43.2509 50.722C42.8869 51.0953 42.7049 51.5993 42.7049 52.234C42.7049 52.8687 42.8869 53.3773 43.2509 53.76C43.6149 54.1333 44.0769 54.32 44.6369 54.32ZM56.8875 51.954H54.4515V54.334H52.6455V51.954H50.2235V50.246H52.6455V47.866H54.4515V50.246H56.8875V51.954Z" fill="#0B0B0B"/>
<g clip-path="url(#clip0)">
<path d="M19.4599 26.9172C23.1354 25.45 27.058 24.6991 31.0155 24.7033H31.5715V28.6318H21.1747L19.4599 26.9172Z" fill="black"/>
<path d="M51.2145 30.5962C54.9047 30.5976 58.5311 31.5607 61.7358 33.3907C62.5167 33.8374 62.9996 34.6682 63 35.568V40.4177H61.0355C61.0355 37.1635 58.3972 34.5247 55.143 34.5247C51.889 34.5247 49.25 37.1635 49.25 40.4177H33.5355V30.5962H51.2145ZM40.4105 31.5782H36.482V33.5427H40.4105V31.5782Z" fill="black"/>
<path d="M55.143 36.4893C57.3124 36.4893 59.0715 38.248 59.0715 40.4178C59.0715 42.5872 57.3124 44.3463 55.143 44.3463C52.9732 44.3463 51.2144 42.5872 51.2144 40.4178C51.2144 38.248 52.9732 36.4893 55.143 36.4893Z" fill="black"/>
<path d="M47.3623 28.6318H33.5356V24.7466C38.3103 24.9545 42.9745 26.2499 47.1725 28.5337L47.3623 28.6318Z" fill="black"/>
<path d="M7.99997 31.5783V30.4657L14.0325 29.6046C14.1676 29.5849 14.2977 29.5375 14.4129 29.465C15.4182 28.8391 16.4575 28.2707 17.5269 27.7622L20.0736 30.3086C20.2576 30.4927 20.5073 30.5963 20.7679 30.5963H31.5715V40.4178H23.7144C23.7109 37.1643 21.0749 34.5281 17.8215 34.5248C17.6189 34.5248 17.4194 34.5358 17.2228 34.5555C17.1497 34.5626 17.0802 34.5781 17.0076 34.5878C16.8847 34.6055 16.7607 34.6193 16.6398 34.6437C16.5646 34.6595 16.4925 34.6831 16.4177 34.7008C16.3041 34.7291 16.1889 34.7534 16.0773 34.7882C15.9938 34.8144 15.9141 34.8485 15.832 34.8774C15.7493 34.9069 15.6351 34.9453 15.5367 34.9855C15.439 35.0258 15.3737 35.0631 15.2926 35.102C15.2108 35.1416 15.111 35.1847 15.0232 35.2322C14.936 35.2792 14.8683 35.3251 14.7907 35.3722C14.7131 35.4198 14.6212 35.4704 14.5391 35.5255C14.4574 35.5808 14.3869 35.6374 14.3111 35.6935C14.2359 35.7498 14.1593 35.8023 14.0863 35.8624C14.0138 35.9224 13.9428 35.9915 13.8713 36.0591C13.7992 36.1264 13.7337 36.1788 13.6689 36.2428C13.6043 36.3065 13.5378 36.3849 13.4724 36.4566C13.4076 36.5288 13.3478 36.5885 13.2901 36.6532C13.2324 36.7176 13.1712 36.8086 13.1119 36.8865C13.0533 36.9653 13.0009 37.0291 12.9499 37.1041C12.8989 37.1791 12.8518 37.2689 12.7955 37.3526C12.74 37.4358 12.6977 37.5069 12.6532 37.5876C12.6095 37.668 12.5678 37.7599 12.5256 37.8465C12.4835 37.933 12.4406 38.0121 12.4041 38.0987C12.3675 38.185 12.3352 38.2785 12.3055 38.369C12.2762 38.4592 12.2358 38.5458 12.2079 38.6372C12.1785 38.728 12.1573 38.8228 12.1327 38.9162C12.1084 39.0093 12.0801 39.102 12.059 39.1977C12.0385 39.294 12.0281 39.3889 12.0124 39.4834C11.9962 39.5793 11.9777 39.6803 11.9669 39.7787C11.9559 39.8767 11.9549 39.9744 11.9494 40.0726C11.9435 40.1717 11.9332 40.2528 11.9316 40.3427L9.1143 39.2152C8.43881 38.95 7.99584 38.2956 7.99997 37.5693V33.5428H10.9465V31.5783H7.99997Z" fill="black"/>
<path d="M17.8215 36.4893C19.9909 36.4893 21.75 38.248 21.75 40.4178C21.75 42.5872 19.9909 44.3463 17.8215 44.3463C15.6517 44.3463 13.893 42.5872 13.893 40.4178C13.893 38.248 15.6517 36.4893 17.8215 36.4893Z" fill="black"/>
</g>
<defs>
<clipPath id="clip0">
<rect width="55" height="55" fill="white" transform="matrix(-1 0 0 1 63 7)"/>
</clipPath>
</defs>
</svg>
