<svg width="31" height="31" viewBox="0 0 31 31" fill="none" xmlns="http://www.w3.org/2000/svg">
<path d="M15.4999 30.9997C24.0602 30.9997 30.9997 24.0602 30.9997 15.4999C30.9997 6.93953 24.0602 0 15.4999 0C6.93952 0 0 6.93953 0 15.4999C0 24.0602 6.93952 30.9997 15.4999 30.9997Z" fill="#55ACEE"/>
<path d="M24.9933 11.1392C24.3291 11.4338 23.6146 11.633 22.8653 11.7219C23.6303 11.2636 24.2175 10.5383 24.4946 9.67263C23.7787 10.0973 22.9855 10.4054 22.1419 10.5714C21.4661 9.85167 20.5032 9.40186 19.4369 9.40186C17.3912 9.40186 15.732 11.061 15.732 13.1068C15.732 13.3971 15.7649 13.6798 15.8285 13.9511C12.7494 13.7967 10.0193 12.3218 8.19182 10.0796C7.87297 10.6267 7.69006 11.2636 7.69006 11.9424C7.69006 13.2275 8.34462 14.362 9.33819 15.0262C8.73116 15.0071 8.1595 14.8405 7.66022 14.5623C7.65995 14.5781 7.65995 14.5938 7.65995 14.6093C7.65995 16.4044 8.93756 17.9017 10.6321 18.2418C10.3215 18.3269 9.99357 18.3719 9.65621 18.3719C9.41694 18.3719 9.18512 18.349 8.95911 18.3059C9.43048 19.7775 10.7984 20.8487 12.42 20.8788C11.1518 21.8726 9.55453 22.4648 7.81827 22.4648C7.51986 22.4648 7.22422 22.4473 6.93494 22.4128C8.57367 23.4644 10.5216 24.0775 12.6137 24.0775C19.4284 24.0775 23.1551 18.4322 23.1551 13.5359C23.1551 13.3753 23.1515 13.2153 23.1443 13.0567C23.8688 12.5345 24.4968 11.8822 24.9933 11.1392Z" fill="#F1F2F2"/>
</svg>
