<svg width="31" height="31" viewBox="0 0 31 31" fill="none" xmlns="http://www.w3.org/2000/svg">
<path d="M15.5 31C24.0604 31 31 24.0604 31 15.5C31 6.93959 24.0604 0 15.5 0C6.93959 0 0 6.93959 0 15.5C0 24.0604 6.93959 31 15.5 31Z" fill="#4D76A1"/>
<path fill-rule="evenodd" clip-rule="evenodd" d="M14.9144 22.2981H16.131C16.131 22.2981 16.4985 22.2578 16.6861 22.0555C16.8588 21.8699 16.8533 21.5212 16.8533 21.5212C16.8533 21.5212 16.8295 19.8888 17.5871 19.6484C18.334 19.4116 19.293 21.2261 20.3095 21.9237C21.0782 22.4518 21.6623 22.336 21.6623 22.336L24.3803 22.2981C24.3803 22.2981 25.8021 22.2105 25.128 21.0926C25.0727 21.0012 24.7353 20.2657 23.1071 18.7543C21.4029 17.1725 21.6311 17.4283 23.684 14.6921C24.9343 13.0257 25.4341 12.0084 25.278 11.5726C25.1291 11.1576 24.2095 11.2673 24.2095 11.2673L21.1492 11.2864C21.1492 11.2864 20.9224 11.2554 20.7541 11.356C20.5897 11.4547 20.4839 11.6845 20.4839 11.6845C20.4839 11.6845 19.9995 12.974 19.3535 14.0707C17.9908 16.3847 17.4459 16.5068 17.2232 16.3632C16.7052 16.0283 16.8345 15.0178 16.8345 14.3C16.8345 12.0575 17.1746 11.1225 16.1722 10.8805C15.8395 10.8001 15.5947 10.747 14.744 10.7385C13.652 10.7272 12.7278 10.7418 12.2045 10.9982C11.8563 11.1687 11.5878 11.5486 11.7513 11.5704C11.9536 11.5975 12.4117 11.6939 12.6546 12.0247C12.9682 12.4513 12.9571 13.4095 12.9571 13.4095C12.9571 13.4095 13.1373 16.0493 12.5363 16.3773C12.1238 16.6022 11.5579 16.1429 10.343 14.0436C9.72052 12.9682 9.25053 11.7796 9.25053 11.7796C9.25053 11.7796 9.1599 11.5574 8.99827 11.4386C8.80209 11.2947 8.528 11.2488 8.528 11.2488L5.61992 11.2679C5.61992 11.2679 5.18336 11.28 5.02311 11.4699C4.88053 11.6387 5.01178 11.9879 5.01178 11.9879C5.01178 11.9879 7.28851 17.3145 9.86641 19.9987C12.2302 22.4598 14.9144 22.2981 14.9144 22.2981Z" fill="white"/>
</svg>
